<svg width="134" height="33" viewBox="0 0 134 33" fill="none" xmlns="http://www.w3.org/2000/svg">
<path d="M14.28 32.44C11.5867 32.44 9.14667 31.8267 6.96 30.6C4.8 29.3467 3.09333 27.6267 1.84 25.44C0.613333 23.2267 7.45058e-09 20.7467 7.45058e-09 18C7.45058e-09 15.2533 0.613333 12.7867 1.84 10.6C3.09333 8.38667 4.81333 6.66667 7 5.44C9.18667 4.18667 11.6267 3.56 14.32 3.56C16.5333 3.56 18.5467 3.97333 20.36 4.8C22.2 5.6 23.7467 6.77333 25 8.32L21.56 11.68C19.6667 9.46667 17.3467 8.36 14.6 8.36C12.84 8.36 11.2533 8.77333 9.84 9.6C8.45333 10.4267 7.36 11.5733 6.56 13.04C5.78667 14.48 5.4 16.1333 5.4 18C5.4 19.84 5.78667 21.4933 6.56 22.96C7.36 24.4 8.45333 25.5333 9.84 26.36C11.2533 27.1867 12.84 27.6 14.6 27.6C17.3733 27.6 19.6933 26.4933 21.56 24.28L25 27.64C23.7733 29.1867 22.24 30.3733 20.4 31.2C18.56 32.0267 16.52 32.44 14.28 32.44ZM30.6678 7.2C29.7078 7.2 28.9211 6.90667 28.3078 6.32C27.6945 5.70667 27.3878 4.96 27.3878 4.08C27.3878 3.2 27.6945 2.46667 28.3078 1.88C28.9211 1.26667 29.7078 0.959999 30.6678 0.959999C31.6278 0.959999 32.4145 1.25333 33.0278 1.84C33.6411 2.4 33.9478 3.10667 33.9478 3.96C33.9478 4.89333 33.6411 5.66667 33.0278 6.28C32.4411 6.89333 31.6545 7.2 30.6678 7.2ZM33.2678 10.6V32H28.0678V10.6H33.2678ZM50.3989 23.88C50.2389 23.9067 49.9989 23.92 49.6789 23.92H43.8789V32H38.5589V4H49.6789C51.9989 4 54.0122 4.4 55.7189 5.2C57.4522 6 58.7722 7.16 59.6789 8.68C60.6122 10.1733 61.0789 11.9467 61.0789 14C61.0789 16.1067 60.5856 17.92 59.5989 19.44C58.6122 20.96 57.2256 22.0933 55.4389 22.84L61.5589 32H55.7989L50.3989 23.88ZM49.3989 19.44C51.4256 19.44 52.9722 18.9733 54.0389 18.04C55.1322 17.08 55.6789 15.7333 55.6789 14C55.6789 12.2933 55.1322 10.9733 54.0389 10.04C52.9722 9.08 51.4256 8.6 49.3989 8.6H43.8789V19.44H49.3989ZM77.5964 32.44C74.9031 32.44 72.4631 31.8267 70.2764 30.6C68.1164 29.3467 66.4097 27.6267 65.1564 25.44C63.9297 23.2267 63.3164 20.7467 63.3164 18C63.3164 15.2533 63.9297 12.7867 65.1564 10.6C66.4097 8.38667 68.1297 6.66667 70.3164 5.44C72.5031 4.18667 74.9431 3.56 77.6364 3.56C79.8497 3.56 81.8631 3.97333 83.6764 4.8C85.5164 5.6 87.0631 6.77333 88.3164 8.32L84.8764 11.68C82.9831 9.46667 80.6631 8.36 77.9164 8.36C76.1564 8.36 74.5697 8.77333 73.1564 9.6C71.7697 10.4267 70.6764 11.5733 69.8764 13.04C69.1031 14.48 68.7164 16.1333 68.7164 18C68.7164 19.84 69.1031 21.4933 69.8764 22.96C70.6764 24.4 71.7697 25.5333 73.1564 26.36C74.5697 27.1867 76.1564 27.6 77.9164 27.6C80.6897 27.6 83.0097 26.4933 84.8764 24.28L88.3164 27.64C87.0897 29.1867 85.5564 30.3733 83.7164 31.2C81.8764 32.0267 79.8364 32.44 77.5964 32.44ZM97.0242 4V27.4H110.704V32H91.6642V4H97.0242ZM133.32 32H113.16V4H132.8V8.52H118.48V15.6H131.16V20H118.48V27.44H133.32V32Z" fill="#FFAE00"/>
</svg>
