<svg width="146" height="129" viewBox="0 0 146 129" fill="none" xmlns="http://www.w3.org/2000/svg">
<path fill-rule="evenodd" clip-rule="evenodd" d="M145.444 15.3224L74.61 82.6248C72.6705 84.4675 69.6241 84.4571 67.6973 82.6011L38.1616 54.1515L45.099 46.9493L71.1896 72.0805L138.556 8.07288L145.444 15.3224Z" fill="white"/>
<path fill-rule="evenodd" clip-rule="evenodd" d="M82.1577 11.4893C70.994 9.09435 59.3581 10.3091 48.9298 14.958C38.5015 19.607 29.8203 27.4497 24.1396 37.3539C18.4589 47.258 16.0726 58.7112 17.3252 70.06C18.5777 81.4087 23.4044 92.0658 31.1083 100.493C38.8122 108.92 48.9948 114.68 60.186 116.943C71.3772 119.206 82.9979 117.854 93.3706 113.082C103.743 108.31 112.331 100.365 117.894 90.3945C123.458 80.4238 125.708 68.9432 124.322 57.6101L134.248 56.3956C135.892 69.8329 133.223 83.4451 126.627 95.2669C120.031 107.089 109.849 116.509 97.55 122.167C85.2515 127.824 71.4732 129.428 58.2042 126.745C44.9352 124.062 32.862 117.232 23.7277 107.24C14.5935 97.2486 8.87065 84.6128 7.38552 71.157C5.90038 57.7012 8.72975 44.1215 15.4652 32.3785C22.2006 20.6355 32.4935 11.3366 44.858 5.82452C57.2226 0.312395 71.0189 -1.12784 84.2552 1.71174L82.1577 11.4893Z" fill="white"/>
<path fill-rule="evenodd" clip-rule="evenodd" d="M93.5947 3.61819L100.929 6.81295L96.5363 16.8978L89.2019 13.703L93.5947 3.61819Z" fill="white"/>
<path fill-rule="evenodd" clip-rule="evenodd" d="M108.991 11.8459L115.14 16.9643L108.102 25.4182L101.953 20.2998L108.991 11.8459Z" fill="white"/>
</svg>
