<svg width="139" height="129" viewBox="0 0 139 129" fill="none" xmlns="http://www.w3.org/2000/svg">
<path fill-rule="evenodd" clip-rule="evenodd" d="M138.444 15.3224L67.61 82.6248C65.6705 84.4675 62.6241 84.4571 60.6973 82.6011L31.1616 54.1515L38.099 46.9493L64.1896 72.0805L131.556 8.07288L138.444 15.3224Z" fill="#F9AD47"/>
<path fill-rule="evenodd" clip-rule="evenodd" d="M75.1577 11.4893C63.994 9.09435 52.3581 10.3091 41.9298 14.958C31.5015 19.607 22.8203 27.4497 17.1396 37.3539C11.4589 47.258 9.07258 58.7112 10.3252 70.06C11.5777 81.4087 16.4044 92.0658 24.1083 100.493C31.8122 108.92 41.9948 114.68 53.186 116.943C64.3772 119.206 75.9979 117.854 86.3706 113.082C96.7432 108.31 105.331 100.365 110.894 90.3945C116.458 80.4238 118.708 68.9432 117.322 57.6101L127.248 56.3956C128.892 69.8329 126.223 83.4451 119.627 95.2669C113.031 107.089 102.849 116.509 90.55 122.167C78.2515 127.824 64.4732 129.428 51.2042 126.745C37.9352 124.062 25.862 117.232 16.7277 107.24C7.59346 97.2486 1.87065 84.6128 0.385518 71.157C-1.09962 57.7012 1.72975 44.1215 8.46517 32.3785C15.2006 20.6355 25.4935 11.3366 37.858 5.82452C50.2226 0.312395 64.0189 -1.12784 77.2552 1.71174L75.1577 11.4893Z" fill="#F9AD47"/>
<path fill-rule="evenodd" clip-rule="evenodd" d="M86.5947 3.61819L93.9291 6.81295L89.5363 16.8978L82.2019 13.703L86.5947 3.61819Z" fill="#F9AD47"/>
<path fill-rule="evenodd" clip-rule="evenodd" d="M101.991 11.8459L108.14 16.9643L101.102 25.4182L94.9534 20.2998L101.991 11.8459Z" fill="#F9AD47"/>
</svg>
