<svg width="300" height="71" viewBox="0 0 300 71" fill="none" xmlns="http://www.w3.org/2000/svg">
<path d="M32.294 70.9875C26.2491 70.9875 20.7729 69.611 15.8652 66.8579C11.0174 64.0449 7.18696 60.1846 4.37401 55.2769C1.62092 50.3094 0.244371 44.7433 0.244371 38.5788C0.244371 32.4143 1.62092 26.8782 4.37401 21.9705C7.18696 17.0029 11.0473 13.1426 15.955 10.3895C20.8627 7.57657 26.3389 6.17009 32.3838 6.17009C37.3513 6.17009 41.87 7.09777 45.9398 8.95311C50.0694 10.7486 53.5407 13.382 56.3536 16.8533L48.633 24.3944C44.3837 19.4268 39.1767 16.9431 33.0122 16.9431C29.0621 16.9431 25.501 17.8707 22.329 19.7261C19.2168 21.5814 16.7629 24.155 14.9674 27.4467C13.2318 30.6786 12.364 34.3893 12.364 38.5788C12.364 42.7085 13.2318 46.4191 14.9674 49.7109C16.7629 52.9428 19.2168 55.4864 22.329 57.3417C25.501 59.1971 29.0621 60.1248 33.0122 60.1248C39.2366 60.1248 44.4435 57.641 48.633 52.6735L56.3536 60.2145C53.6005 63.6858 50.1592 66.3492 46.0295 68.2045C41.8999 70.0598 37.3214 70.9875 32.294 70.9875ZM69.0743 14.3396C66.9197 14.3396 65.1541 13.6813 63.7776 12.3646C62.401 10.988 61.7128 9.31221 61.7128 7.33717C61.7128 5.36212 62.401 3.71625 63.7776 2.39955C65.1541 1.023 66.9197 0.334728 69.0743 0.334728C71.2289 0.334728 72.9945 0.993078 74.371 2.30978C75.7476 3.56662 76.4358 5.15265 76.4358 7.06784C76.4358 9.16259 75.7476 10.8982 74.371 12.2748C73.0543 13.6513 71.2888 14.3396 69.0743 14.3396ZM74.9097 21.9705V70H63.2389V21.9705H74.9097ZM113.358 51.7757C112.999 51.8356 112.46 51.8655 111.742 51.8655H98.7249V70H86.7848V7.15762H111.742C116.949 7.15762 121.468 8.05536 125.298 9.85086C129.188 11.6464 132.151 14.2498 134.186 17.6613C136.281 21.0129 137.328 24.9929 137.328 29.6013C137.328 34.3295 136.221 38.3993 134.006 41.8107C131.792 45.2221 128.68 47.7658 124.67 49.4416L138.405 70H125.478L113.358 51.7757ZM111.114 41.8107C115.662 41.8107 119.134 40.7633 121.528 38.6686C123.982 36.514 125.208 33.4916 125.208 29.6013C125.208 25.7709 123.982 22.8084 121.528 20.7136C119.134 18.559 115.662 17.4817 111.114 17.4817H98.7249V41.8107H111.114ZM174.399 70.9875C168.355 70.9875 162.878 69.611 157.971 66.8579C153.123 64.0449 149.292 60.1846 146.479 55.2769C143.726 50.3094 142.35 44.7433 142.35 38.5788C142.35 32.4143 143.726 26.8782 146.479 21.9705C149.292 17.0029 153.153 13.1426 158.06 10.3895C162.968 7.57657 168.444 6.17009 174.489 6.17009C179.457 6.17009 183.975 7.09777 188.045 8.95311C192.175 10.7486 195.646 13.382 198.459 16.8533L190.738 24.3944C186.489 19.4268 181.282 16.9431 175.118 16.9431C171.168 16.9431 167.607 17.8707 164.434 19.7261C161.322 21.5814 158.868 24.155 157.073 27.4467C155.337 30.6786 154.469 34.3893 154.469 38.5788C154.469 42.7085 155.337 46.4191 157.073 49.7109C158.868 52.9428 161.322 55.4864 164.434 57.3417C167.607 59.1971 171.168 60.1248 175.118 60.1248C181.342 60.1248 186.549 57.641 190.738 52.6735L198.459 60.2145C195.706 63.6858 192.265 66.3492 188.135 68.2045C184.005 70.0598 179.427 70.9875 174.399 70.9875ZM218.003 7.15762V59.6759H248.706V70H205.973V7.15762H218.003ZM299.465 70H254.218V7.15762H298.298V17.3022H266.158V33.1923H294.617V43.0675H266.158V59.7657H299.465V70Z" fill="white"/>
</svg>
