<svg width="48" height="48" viewBox="0 0 48 48" fill="none" xmlns="http://www.w3.org/2000/svg">
<path d="M24 42H12C10.9391 42 9.92172 41.5786 9.17157 40.8284C8.42143 40.0783 8 39.0609 8 38V14C8 12.9391 8.42143 11.9217 9.17157 11.1716C9.92172 10.4214 10.9391 10 12 10H36C37.0609 10 38.0783 10.4214 38.8284 11.1716C39.5786 11.9217 40 12.9391 40 14V23M32 6V14M16 6V14M8 19H40M44 44C44 42.9391 43.5786 41.9217 42.8284 41.1716C42.0783 40.4214 41.0609 40 40 40H36C34.9391 40 33.9217 40.4214 33.1716 41.1716C32.4214 41.9217 32 42.9391 32 44M34 34C34 35.0609 34.4214 36.0783 35.1716 36.8284C35.9217 37.5786 36.9391 38 38 38C39.0609 38 40.0783 37.5786 40.8284 36.8284C41.5786 36.0783 42 35.0609 42 34C42 32.9391 41.5786 31.9217 40.8284 31.1716C40.0783 30.4214 39.0609 30 38 30C36.9391 30 35.9217 30.4214 35.1716 31.1716C34.4214 31.9217 34 32.9391 34 34Z" stroke="#686868" stroke-width="4" stroke-linecap="round" stroke-linejoin="round"/>
<path d="M8 15V19H40V15C40 13.9391 39.5786 12.9217 38.8284 12.1716C38.0783 11.4214 37.0609 11 36 11H12C10.9391 11 9.92172 11.4214 9.17157 12.1716C8.42143 12.9217 8 13.9391 8 15Z" fill="#686868"/>
</svg>
