<svg width="48" height="48" viewBox="0 0 48 48" fill="none" xmlns="http://www.w3.org/2000/svg">
<path d="M38 32V38M38 38V44M38 38H44M38 38H32" stroke="#686868" stroke-width="4" stroke-linecap="round" stroke-linejoin="round"/>
<path d="M8 14V18H40V14C40 12.9391 39.5786 11.9217 38.8284 11.1716C38.0783 10.4214 37.0609 10 36 10H12C10.9391 10 9.92172 10.4214 9.17157 11.1716C8.42143 11.9217 8 12.9391 8 14Z" fill="#686868"/>
<path d="M32 10H36C37.0609 10 38.0783 10.4214 38.8284 11.1716C39.5786 11.9217 40 12.9391 40 14V18H8V14C8 12.9391 8.42143 11.9217 9.17157 11.1716C9.92172 10.4214 10.9391 10 12 10H16M32 10V6M32 10H16M16 10V6M8 19V38C8 39.0609 8.42143 40.0783 9.17157 40.8284C9.92172 41.5786 10.9391 42 12 42H26M40 19V24.5" stroke="#686868" stroke-width="4" stroke-linecap="round" stroke-linejoin="round"/>
</svg>
