<svg width="60" height="48" viewBox="0 0 60 48" fill="none" xmlns="http://www.w3.org/2000/svg">
<path d="M59.0625 11.625C59.0625 12.625 58.7125 13.475 58.0125 14.175L30.8625 41.3251L25.7625 46.4251C25.0625 47.1251 24.2125 47.4751 23.2125 47.4751C22.2125 47.4751 21.3625 47.1251 20.6625 46.4251L15.5625 41.3251L1.9875 27.75C1.2875 27.05 0.9375 26.2 0.9375 25.2C0.9375 24.2 1.2875 23.35 1.9875 22.65L7.0875 17.55C7.7875 16.85 8.6375 16.5 9.6375 16.5C10.6375 16.5 11.4875 16.85 12.1875 17.55L23.2125 28.6125L47.8125 3.97505C48.5125 3.27505 49.3625 2.92505 50.3625 2.92505C51.3625 2.92505 52.2125 3.27505 52.9125 3.97505L58.0125 9.07505C58.7125 9.77505 59.0625 10.625 59.0625 11.625Z" fill="white"/>
</svg>
