<svg width="32" height="32" viewBox="0 0 32 32" fill="none" xmlns="http://www.w3.org/2000/svg">
<path d="M17.5268 4.72971C17.2988 4.50229 17.0045 4.368 16.656 4.368C15.96 4.368 15.4371 4.89086 15.4371 5.58686C15.4371 5.92171 15.5714 6.22971 15.7857 6.45771L25.5354 15.9931L15.7857 25.5291C15.5714 25.7566 15.4371 26.0777 15.4371 26.3994C15.4371 27.096 15.96 27.632 16.656 27.632C17.0045 27.632 17.2988 27.4977 17.5268 27.2703L28.1337 16.8909C28.3885 16.6766 28.5354 16.3417 28.5354 15.9937C28.5354 15.6583 28.3885 15.3503 28.1337 15.096L17.5268 4.72971ZM5.56683 4.72971C5.32569 4.50229 5.0314 4.368 4.69654 4.368C3.99997 4.368 3.46454 4.89086 3.46454 5.58686C3.46454 5.92171 3.59826 6.22971 3.81254 6.45771L13.5623 15.9931L3.81255 25.5291C3.59826 25.7566 3.46397 26.0777 3.46397 26.3994C3.46111 26.5621 3.49103 26.7236 3.55196 26.8745C3.61289 27.0253 3.70358 27.1623 3.81861 27.2774C3.93364 27.3924 4.07065 27.4831 4.22149 27.544C4.37233 27.6049 4.53389 27.6349 4.69654 27.632C4.8563 27.6318 5.01441 27.5997 5.1616 27.5376C5.30878 27.4755 5.44209 27.3846 5.55369 27.2703L16.1743 16.8909C16.4285 16.6766 16.5628 16.3417 16.5628 15.9937C16.5628 15.6583 16.4285 15.3503 16.1743 15.096L5.56683 4.72971Z" fill="#939393"/>
</svg>
