<svg width="48" height="48" viewBox="0 0 48 48" fill="none" xmlns="http://www.w3.org/2000/svg">
<path fill-rule="evenodd" clip-rule="evenodd" d="M6 14C6 13.4696 6.21071 12.9609 6.58579 12.5858C6.96086 12.2107 7.46957 12 8 12H40C40.5304 12 41.0391 12.2107 41.4142 12.5858C41.7893 12.9609 42 13.4696 42 14C42 14.5304 41.7893 15.0391 41.4142 15.4142C41.0391 15.7893 40.5304 16 40 16H8C7.46957 16 6.96086 15.7893 6.58579 15.4142C6.21071 15.0391 6 14.5304 6 14ZM10 23C10 22.4696 10.2107 21.9609 10.5858 21.5858C10.9609 21.2107 11.4696 21 12 21H36C36.5304 21 37.0391 21.2107 37.4142 21.5858C37.7893 21.9609 38 22.4696 38 23C38 23.5304 37.7893 24.0391 37.4142 24.4142C37.0391 24.7893 36.5304 25 36 25H12C11.4696 25 10.9609 24.7893 10.5858 24.4142C10.2107 24.0391 10 23.5304 10 23ZM16 32C16 31.4696 16.2107 30.9609 16.5858 30.5858C16.9609 30.2107 17.4696 30 18 30H30C30.5304 30 31.0391 30.2107 31.4142 30.5858C31.7893 30.9609 32 31.4696 32 32C32 32.5304 31.7893 33.0391 31.4142 33.4142C31.0391 33.7893 30.5304 34 30 34H18C17.4696 34 16.9609 33.7893 16.5858 33.4142C16.2107 33.0391 16 32.5304 16 32Z" fill="#5A5A5A"/>
</svg>
