<svg width="48" height="48" viewBox="0 0 48 48" fill="none" xmlns="http://www.w3.org/2000/svg">
<path fill-rule="evenodd" clip-rule="evenodd" d="M36.988 7.60195C41.178 10.0439 44.126 15.0019 43.996 20.7859C43.834 28.0059 38.216 34.3739 28.638 40.0619C27.218 40.9059 25.722 41.9999 24 41.9999C22.31 41.9999 20.75 40.8859 19.36 40.0599C9.78601 34.3739 4.16601 28.0039 4.00401 20.7859C3.87401 15.0019 6.82201 10.0459 11.012 7.60195C14.932 5.31995 19.856 5.30595 24 8.67595C28.144 5.30595 33.068 5.31795 36.988 7.60195ZM34.974 11.0599C32.186 9.43595 28.702 9.49395 25.686 12.5459C25.4649 12.7679 25.2021 12.944 24.9128 13.0641C24.6235 13.1843 24.3133 13.2461 24 13.2461C23.6867 13.2461 23.3765 13.1843 23.0872 13.0641C22.7979 12.944 22.5351 12.7679 22.314 12.5459C19.298 9.49395 15.814 9.43595 13.026 11.0599C10.138 12.7439 7.90601 16.3159 8.00401 20.6999C8.11601 25.7219 12.084 31.0879 21.404 36.6239C22.22 37.1099 23.072 37.7319 24 37.9899C24.928 37.7319 25.78 37.1099 26.596 36.6239C35.916 31.0879 39.884 25.7239 39.996 20.6979C40.096 16.3179 37.862 12.7439 34.974 11.0599Z" fill="#686868"/>
</svg>
