<svg width="48" height="48" viewBox="0 0 48 48" fill="none" xmlns="http://www.w3.org/2000/svg">
<path d="M12 44C10.9 44 9.95867 43.6087 9.176 42.826C8.39333 42.0433 8.00133 41.1013 8 40V20C8 18.9 8.392 17.9587 9.176 17.176C9.96 16.3933 10.9013 16.0013 12 16H30V12C30 10.3333 29.4167 8.91667 28.25 7.75C27.0833 6.58333 25.6667 6 24 6C22.6 6 21.3747 6.42533 20.324 7.276C19.2733 8.12667 18.5653 9.18467 18.2 10.45C18.0667 10.9167 17.7913 11.292 17.374 11.576C16.9567 11.86 16.4987 12.0013 16 12C15.4333 12 14.9587 11.8167 14.576 11.45C14.1933 11.0833 14.0513 10.65 14.15 10.15C14.6167 7.85 15.7667 5.91667 17.6 4.35C19.4333 2.78333 21.5667 2 24 2C26.7667 2 29.1253 2.97467 31.076 4.924C33.0267 6.87333 34.0013 9.232 34 12V16H36C37.1 16 38.042 16.392 38.826 17.176C39.61 17.96 40.0013 18.9013 40 20V40C40 41.1 39.6087 42.042 38.826 42.826C38.0433 43.61 37.1013 44.0013 36 44H12ZM12 40H36V20H12V40ZM24 34C25.1 34 26.042 33.6087 26.826 32.826C27.61 32.0433 28.0013 31.1013 28 30C27.9987 28.8987 27.6073 27.9573 26.826 27.176C26.0447 26.3947 25.1027 26.0027 24 26C22.8973 25.9973 21.956 26.3893 21.176 27.176C20.396 27.9627 20.004 28.904 20 30C19.996 31.096 20.388 32.038 21.176 32.826C21.964 33.614 22.9053 34.0053 24 34Z" fill="#5A5A5A"/>
</svg>
