<svg width="32" height="32" viewBox="0 0 32 32" fill="none" xmlns="http://www.w3.org/2000/svg">
<path d="M24 10.6666H22.6667V7.99992C22.6667 4.31992 19.68 1.33325 16 1.33325C12.32 1.33325 9.33337 4.31992 9.33337 7.99992V10.6666H8.00004C6.53337 10.6666 5.33337 11.8666 5.33337 13.3333V26.6666C5.33337 28.1333 6.53337 29.3333 8.00004 29.3333H24C25.4667 29.3333 26.6667 28.1333 26.6667 26.6666V13.3333C26.6667 11.8666 25.4667 10.6666 24 10.6666ZM12 7.99992C12 5.78659 13.7867 3.99992 16 3.99992C18.2134 3.99992 20 5.78659 20 7.99992V10.6666H12V7.99992ZM24 26.6666H8.00004V13.3333H24V26.6666ZM16 22.6666C17.4667 22.6666 18.6667 21.4666 18.6667 19.9999C18.6667 18.5333 17.4667 17.3333 16 17.3333C14.5334 17.3333 13.3334 18.5333 13.3334 19.9999C13.3334 21.4666 14.5334 22.6666 16 22.6666Z" fill="#5A5A5A"/>
</svg>
