<svg width="25" height="25" viewBox="0 0 25 25" fill="none" xmlns="http://www.w3.org/2000/svg">
<path fill-rule="evenodd" clip-rule="evenodd" d="M8.33333 4.16683H16.6667V2.0835H18.75V4.16683H19.7917C20.3442 4.16683 20.8741 4.38632 21.2648 4.77702C21.6555 5.16772 21.875 5.69763 21.875 6.25016V20.8335C21.875 21.386 21.6555 21.9159 21.2648 22.3066C20.8741 22.6973 20.3442 22.9168 19.7917 22.9168H5.20833C4.6558 22.9168 4.12589 22.6973 3.73519 22.3066C3.34449 21.9159 3.125 21.386 3.125 20.8335V6.25016C3.125 5.69763 3.34449 5.16772 3.73519 4.77702C4.12589 4.38632 4.6558 4.16683 5.20833 4.16683H6.25V2.0835H8.33333V4.16683ZM5.20833 8.3335V20.8335H19.7917V8.3335H5.20833ZM7.29167 11.4585H9.375V13.5418H7.29167V11.4585ZM11.4583 11.4585H13.5417V13.5418H11.4583V11.4585ZM15.625 11.4585H17.7083V13.5418H15.625V11.4585ZM15.625 15.6252H17.7083V17.7085H15.625V15.6252ZM11.4583 15.6252H13.5417V17.7085H11.4583V15.6252ZM7.29167 15.6252H9.375V17.7085H7.29167V15.6252Z" fill="white"/>
</svg>
