<svg width="38" height="38" viewBox="0 0 38 38" fill="none" xmlns="http://www.w3.org/2000/svg">
<path d="M31.5083 20.0448C31.2544 19.7559 31.1144 19.3844 31.1144 18.9998C31.1144 18.6152 31.2544 18.2437 31.5083 17.9548L33.5349 15.6748C33.7582 15.4257 33.8969 15.1122 33.9311 14.7794C33.9652 14.4466 33.893 14.1115 33.7249 13.8223L30.5583 8.34396C30.3918 8.05504 30.1385 7.82601 29.8343 7.68955C29.5301 7.55308 29.1905 7.51613 28.8641 7.58396L25.8874 8.18563C25.5087 8.26389 25.1143 8.20081 24.7789 8.00829C24.4435 7.81578 24.1901 7.50714 24.0666 7.14063L23.1007 4.24313C22.9945 3.92864 22.7922 3.6555 22.5222 3.46229C22.2523 3.26909 21.9285 3.1656 21.5966 3.16646H15.2633C14.918 3.14844 14.5763 3.24393 14.2904 3.43834C14.0045 3.63275 13.7901 3.91541 13.6799 4.24313L12.7933 7.14063C12.6698 7.50714 12.4164 7.81578 12.0809 8.00829C11.7455 8.20081 11.3512 8.26389 10.9724 8.18563L7.91658 7.58396C7.60712 7.54023 7.29164 7.58906 7.00988 7.72431C6.72813 7.85955 6.49269 8.07515 6.33325 8.34396L3.16658 13.8223C2.99425 14.1083 2.91677 14.4415 2.94521 14.7742C2.97364 15.1069 3.10655 15.4222 3.32492 15.6748L5.33575 17.9548C5.58959 18.2437 5.72958 18.6152 5.72958 18.9998C5.72958 19.3844 5.58959 19.7559 5.33575 20.0448L3.32492 22.3248C3.10655 22.5774 2.97364 22.8926 2.94521 23.2254C2.91677 23.5581 2.99425 23.8913 3.16658 24.1773L6.33325 29.6556C6.49966 29.9446 6.75302 30.1736 7.05723 30.31C7.36144 30.4465 7.70097 30.4835 8.02742 30.4156L11.0041 29.814C11.3828 29.7357 11.7772 29.7988 12.1126 29.9913C12.448 30.1838 12.7014 30.4924 12.8249 30.859L13.7908 33.7565C13.9009 34.0842 14.1153 34.3668 14.4012 34.5612C14.6871 34.7557 15.0288 34.8511 15.3741 34.8331H21.7074C22.0394 34.834 22.3632 34.7305 22.6331 34.5373C22.903 34.3441 23.1054 34.0709 23.2116 33.7565L24.1774 30.859C24.3009 30.4924 24.5543 30.1838 24.8897 29.9913C25.2252 29.7988 25.6195 29.7357 25.9983 29.814L28.9749 30.4156C29.3014 30.4835 29.6409 30.4465 29.9451 30.31C30.2493 30.1736 30.5027 29.9446 30.6691 29.6556L33.8358 24.1773C34.0039 23.888 34.076 23.553 34.0419 23.2202C34.0078 22.8873 33.8691 22.5739 33.6458 22.3248L31.5083 20.0448ZM29.1491 22.1665L30.4158 23.5915L28.3891 27.1065L26.5208 26.7265C25.3804 26.4934 24.1942 26.6871 23.1872 27.2708C22.1802 27.8546 21.4226 28.7877 21.0583 29.8931L20.4566 31.6665H16.4032L15.8333 29.8615C15.4689 28.756 14.7113 27.8229 13.7043 27.2391C12.6973 26.6554 11.5111 26.4617 10.3708 26.6948L8.50242 27.0748L6.44408 23.5756L7.71075 22.1506C8.48968 21.2798 8.92031 20.1524 8.92031 18.984C8.92031 17.8156 8.48968 16.6882 7.71075 15.8173L6.44408 14.3923L8.47075 10.909L10.3391 11.289C11.4794 11.5221 12.6657 11.3284 13.6726 10.7446C14.6796 10.1609 15.4372 9.22771 15.8016 8.12229L16.4032 6.33313H20.4566L21.0583 8.13813C21.4226 9.24354 22.1802 10.1767 23.1872 10.7604C24.1942 11.3442 25.3804 11.5379 26.5208 11.3048L28.3891 10.9248L30.4158 14.4398L29.1491 15.8648C28.3789 16.7337 27.9536 17.8545 27.9536 19.0156C27.9536 20.1767 28.3789 21.2976 29.1491 22.1665ZM18.4299 12.6665C17.1773 12.6665 15.9528 13.0379 14.9113 13.7338C13.8698 14.4297 13.058 15.4189 12.5787 16.5761C12.0993 17.7334 11.9739 19.0068 12.2183 20.2354C12.4627 21.4639 13.0658 22.5924 13.9516 23.4781C14.8373 24.3639 15.9658 24.9671 17.1943 25.2114C18.4229 25.4558 19.6963 25.3304 20.8536 24.851C22.0108 24.3717 23 23.5599 23.6959 22.5184C24.3918 21.4769 24.7633 20.2524 24.7633 18.9998C24.7633 17.3201 24.096 15.7092 22.9083 14.5215C21.7205 13.3337 20.1096 12.6665 18.4299 12.6665ZM18.4299 22.1665C17.8036 22.1665 17.1914 21.9807 16.6706 21.6328C16.1499 21.2848 15.744 20.7903 15.5043 20.2116C15.2646 19.633 15.2019 18.9963 15.3241 18.382C15.4463 17.7677 15.7479 17.2035 16.1907 16.7606C16.6336 16.3178 17.1979 16.0162 17.8121 15.894C18.4264 15.7718 19.0631 15.8345 19.6417 16.0742C20.2204 16.3139 20.7149 16.7197 21.0629 17.2405C21.4109 17.7612 21.5966 18.3735 21.5966 18.9998C21.5966 19.8396 21.263 20.6451 20.6691 21.239C20.0752 21.8328 19.2698 22.1665 18.4299 22.1665Z" fill="white"/>
</svg>
