<svg width="20" height="20" viewBox="0 0 40 40" fill="none" xmlns="http://www.w3.org/2000/svg">
<path d="M26.709 34.2846L26.7095 28.9283C26.7098 25.9697 24.3114 23.5711 21.3527 23.5711H9.35736C6.39914 23.5711 4.00093 25.969 4.0006 28.9272L4 34.2846M35.9995 34.2849L36 28.9286C36.0003 25.97 33.6019 23.5714 30.6432 23.5714M25.6772 6.76756C26.9927 7.74362 27.8453 9.30838 27.8453 11.0723C27.8453 12.8361 26.9927 14.4009 25.6772 15.377M20.823 11.072C20.823 14.0304 18.4247 16.4287 15.4662 16.4287C12.5078 16.4287 10.1095 14.0304 10.1095 11.072C10.1095 8.11351 12.5078 5.71521 15.4662 5.71521C18.4247 5.71521 20.823 8.11351 20.823 11.072Z" stroke="black" stroke-width="2" stroke-linecap="round" stroke-linejoin="round"/>
</svg>
